<mxfile host="app.diagrams.net" modified="2022-02-26T18:44:29.843Z" agent="5.0 (Windows NT 10.0; Win64; x64) AppleWebKit/537.36 (KHTML, like Gecko) Chrome/97.0.4692.99 Safari/537.36 OPR/83.0.4254.46" etag="IImdrP5GgBAD1fxxxHji" version="16.6.4" type="github">
  <diagram id="HTo3iiuKE1k7zcjPsBAO" name="Page-1">
    <mxGraphModel dx="729" dy="302" grid="1" gridSize="10" guides="1" tooltips="1" connect="1" arrows="1" fold="1" page="1" pageScale="1" pageWidth="850" pageHeight="1100" math="0" shadow="0">
      <root>
        <mxCell id="0" />
        <mxCell id="1" parent="0" />
        <mxCell id="6rk3nvtCwCU-dYlgrRcQ-2" value="User" style="shape=umlLifeline;participant=umlActor;perimeter=lifelinePerimeter;whiteSpace=wrap;html=1;container=1;collapsible=0;recursiveResize=0;verticalAlign=top;spacingTop=36;outlineConnect=0;" parent="1" vertex="1">
          <mxGeometry x="60" y="30" width="20" height="590" as="geometry" />
        </mxCell>
        <mxCell id="6rk3nvtCwCU-dYlgrRcQ-3" value="Device" style="shape=umlLifeline;participant=umlEntity;perimeter=lifelinePerimeter;whiteSpace=wrap;html=1;container=1;collapsible=0;recursiveResize=0;verticalAlign=top;spacingTop=36;outlineConnect=0;" parent="1" vertex="1">
          <mxGeometry x="270" y="30" width="40" height="590" as="geometry" />
        </mxCell>
        <mxCell id="6rk3nvtCwCU-dYlgrRcQ-11" value="2. Requests Deck" style="html=1;verticalAlign=bottom;startArrow=oval;startFill=1;endArrow=block;startSize=8;rounded=0;" parent="6rk3nvtCwCU-dYlgrRcQ-3" target="6rk3nvtCwCU-dYlgrRcQ-4" edge="1">
          <mxGeometry width="60" relative="1" as="geometry">
            <mxPoint x="20" y="98" as="sourcePoint" />
            <mxPoint x="185" y="98" as="targetPoint" />
          </mxGeometry>
        </mxCell>
        <mxCell id="S-c-iVjcR3PPTWWEFbm2-5" value="" style="html=1;points=[];perimeter=orthogonalPerimeter;" vertex="1" parent="6rk3nvtCwCU-dYlgrRcQ-3">
          <mxGeometry x="20" y="286" width="10" height="40" as="geometry" />
        </mxCell>
        <mxCell id="S-c-iVjcR3PPTWWEFbm2-6" value="13. Card Weight&lt;br&gt;Updated" style="edgeStyle=orthogonalEdgeStyle;html=1;align=left;spacingLeft=2;endArrow=block;rounded=0;entryX=1;entryY=0;" edge="1" parent="6rk3nvtCwCU-dYlgrRcQ-3">
          <mxGeometry relative="1" as="geometry">
            <mxPoint x="25" y="292" as="sourcePoint" />
            <Array as="points">
              <mxPoint x="55" y="292" />
            </Array>
            <mxPoint x="30" y="303" as="targetPoint" />
          </mxGeometry>
        </mxCell>
        <mxCell id="S-c-iVjcR3PPTWWEFbm2-10" value="" style="html=1;points=[];perimeter=orthogonalPerimeter;" vertex="1" parent="6rk3nvtCwCU-dYlgrRcQ-3">
          <mxGeometry x="20" y="355" width="10" height="40" as="geometry" />
        </mxCell>
        <mxCell id="S-c-iVjcR3PPTWWEFbm2-11" value="16. Places&amp;nbsp;&lt;br&gt;Card Back in&amp;nbsp;&lt;br&gt;Same Spot in&lt;br&gt;Deck" style="edgeStyle=orthogonalEdgeStyle;html=1;align=left;spacingLeft=2;endArrow=block;rounded=0;entryX=1;entryY=0;" edge="1" parent="6rk3nvtCwCU-dYlgrRcQ-3">
          <mxGeometry relative="1" as="geometry">
            <mxPoint x="25" y="355" as="sourcePoint" />
            <Array as="points">
              <mxPoint x="55" y="355" />
            </Array>
            <mxPoint x="30" y="375" as="targetPoint" />
          </mxGeometry>
        </mxCell>
        <mxCell id="S-c-iVjcR3PPTWWEFbm2-14" value="" style="html=1;points=[];perimeter=orthogonalPerimeter;" vertex="1" parent="6rk3nvtCwCU-dYlgrRcQ-3">
          <mxGeometry x="20" y="436" width="10" height="40" as="geometry" />
        </mxCell>
        <mxCell id="S-c-iVjcR3PPTWWEFbm2-15" value="18. Places Card&lt;br&gt;in Deck with&amp;nbsp;&lt;br&gt;placement&lt;br&gt;dependent on&amp;nbsp;&lt;br&gt;weight" style="edgeStyle=orthogonalEdgeStyle;html=1;align=left;spacingLeft=2;endArrow=block;rounded=0;entryX=1;entryY=0;" edge="1" parent="6rk3nvtCwCU-dYlgrRcQ-3">
          <mxGeometry relative="1" as="geometry">
            <mxPoint x="25" y="418" as="sourcePoint" />
            <Array as="points">
              <mxPoint x="55" y="418" />
            </Array>
            <mxPoint x="30" y="438" as="targetPoint" />
          </mxGeometry>
        </mxCell>
        <mxCell id="6rk3nvtCwCU-dYlgrRcQ-4" value="Application Controller" style="shape=umlLifeline;participant=umlEntity;perimeter=lifelinePerimeter;whiteSpace=wrap;html=1;container=1;collapsible=0;recursiveResize=0;verticalAlign=top;spacingTop=36;outlineConnect=0;" parent="1" vertex="1">
          <mxGeometry x="405" y="30" width="40" height="590" as="geometry" />
        </mxCell>
        <mxCell id="6rk3nvtCwCU-dYlgrRcQ-5" value="Database" style="shape=umlLifeline;participant=umlEntity;perimeter=lifelinePerimeter;whiteSpace=wrap;html=1;container=1;collapsible=0;recursiveResize=0;verticalAlign=top;spacingTop=36;outlineConnect=0;" parent="1" vertex="1">
          <mxGeometry x="560" y="30" width="40" height="590" as="geometry" />
        </mxCell>
        <mxCell id="6rk3nvtCwCU-dYlgrRcQ-6" value="1. Loads Creation Page with &lt;br&gt;specified Deck" style="html=1;verticalAlign=bottom;startArrow=oval;startFill=1;endArrow=block;startSize=8;rounded=0;" parent="1" source="6rk3nvtCwCU-dYlgrRcQ-2" target="6rk3nvtCwCU-dYlgrRcQ-3" edge="1">
          <mxGeometry x="0.0045" y="10" width="60" relative="1" as="geometry">
            <mxPoint x="340" y="160" as="sourcePoint" />
            <mxPoint x="400" y="160" as="targetPoint" />
            <Array as="points">
              <mxPoint x="150" y="120" />
              <mxPoint x="230" y="120" />
            </Array>
            <mxPoint x="1" as="offset" />
          </mxGeometry>
        </mxCell>
        <mxCell id="6rk3nvtCwCU-dYlgrRcQ-12" value="3. Requests User path" style="html=1;verticalAlign=bottom;startArrow=oval;startFill=1;endArrow=block;startSize=8;rounded=0;" parent="1" target="6rk3nvtCwCU-dYlgrRcQ-5" edge="1">
          <mxGeometry width="60" relative="1" as="geometry">
            <mxPoint x="424.5" y="139" as="sourcePoint" />
            <mxPoint x="549.5" y="139" as="targetPoint" />
          </mxGeometry>
        </mxCell>
        <mxCell id="6rk3nvtCwCU-dYlgrRcQ-14" value="File System" style="shape=umlLifeline;participant=umlEntity;perimeter=lifelinePerimeter;whiteSpace=wrap;html=1;container=1;collapsible=0;recursiveResize=0;verticalAlign=top;spacingTop=36;outlineConnect=0;" parent="1" vertex="1">
          <mxGeometry x="680" y="30" width="40" height="590" as="geometry" />
        </mxCell>
        <mxCell id="6rk3nvtCwCU-dYlgrRcQ-16" value="4. Returns User path" style="html=1;verticalAlign=bottom;endArrow=open;dashed=1;endSize=8;rounded=0;" parent="1" source="6rk3nvtCwCU-dYlgrRcQ-5" edge="1">
          <mxGeometry relative="1" as="geometry">
            <mxPoint x="549.5" y="164" as="sourcePoint" />
            <mxPoint x="424.5" y="164" as="targetPoint" />
          </mxGeometry>
        </mxCell>
        <mxCell id="6rk3nvtCwCU-dYlgrRcQ-15" value="5. Requests Deck" style="html=1;verticalAlign=bottom;startArrow=oval;startFill=1;endArrow=block;startSize=8;rounded=0;" parent="1" edge="1">
          <mxGeometry width="60" relative="1" as="geometry">
            <mxPoint x="424.5" y="190" as="sourcePoint" />
            <mxPoint x="699.5" y="190" as="targetPoint" />
          </mxGeometry>
        </mxCell>
        <mxCell id="6rk3nvtCwCU-dYlgrRcQ-18" value="6. Returns Deck" style="html=1;verticalAlign=bottom;endArrow=open;dashed=1;endSize=8;rounded=0;" parent="1" edge="1">
          <mxGeometry relative="1" as="geometry">
            <mxPoint x="699.5" y="218" as="sourcePoint" />
            <mxPoint x="424.5" y="218" as="targetPoint" />
          </mxGeometry>
        </mxCell>
        <mxCell id="6rk3nvtCwCU-dYlgrRcQ-19" value="7. Creates Deck Object" style="html=1;verticalAlign=bottom;endArrow=open;dashed=1;endSize=8;rounded=0;" parent="1" target="6rk3nvtCwCU-dYlgrRcQ-3" edge="1">
          <mxGeometry relative="1" as="geometry">
            <mxPoint x="420" y="220" as="sourcePoint" />
            <mxPoint x="370" y="170" as="targetPoint" />
          </mxGeometry>
        </mxCell>
        <mxCell id="mTX0Zf34lOwFtFNKfacL-1" value="9. Populates page with first card in deck" style="html=1;verticalAlign=bottom;endArrow=open;dashed=1;endSize=8;rounded=0;" parent="1" target="6rk3nvtCwCU-dYlgrRcQ-2" edge="1">
          <mxGeometry relative="1" as="geometry">
            <mxPoint x="288.5" y="220" as="sourcePoint" />
            <mxPoint x="88.5" y="220" as="targetPoint" />
          </mxGeometry>
        </mxCell>
        <mxCell id="mTX0Zf34lOwFtFNKfacL-12" value="22. Requests User path" style="html=1;verticalAlign=bottom;startArrow=oval;startFill=1;endArrow=block;startSize=8;rounded=0;" parent="1" edge="1">
          <mxGeometry width="60" relative="1" as="geometry">
            <mxPoint x="425" y="540" as="sourcePoint" />
            <mxPoint x="580" y="540" as="targetPoint" />
          </mxGeometry>
        </mxCell>
        <mxCell id="mTX0Zf34lOwFtFNKfacL-13" value="23. Returns User path" style="html=1;verticalAlign=bottom;endArrow=open;dashed=1;endSize=8;rounded=0;" parent="1" edge="1">
          <mxGeometry relative="1" as="geometry">
            <mxPoint x="580" y="560" as="sourcePoint" />
            <mxPoint x="425" y="560" as="targetPoint" />
          </mxGeometry>
        </mxCell>
        <mxCell id="mTX0Zf34lOwFtFNKfacL-17" value="25. Confirm Successful&lt;br&gt;Save" style="html=1;verticalAlign=bottom;endArrow=open;dashed=1;endSize=8;rounded=0;" parent="1" edge="1">
          <mxGeometry relative="1" as="geometry">
            <mxPoint x="425.5" y="590" as="sourcePoint" />
            <mxPoint x="291" y="590" as="targetPoint" />
          </mxGeometry>
        </mxCell>
        <mxCell id="mTX0Zf34lOwFtFNKfacL-18" value="26. Report Success to User" style="html=1;verticalAlign=bottom;endArrow=open;dashed=1;endSize=8;rounded=0;" parent="1" edge="1">
          <mxGeometry relative="1" as="geometry">
            <mxPoint x="290" y="590" as="sourcePoint" />
            <mxPoint x="69.5" y="590" as="targetPoint" />
          </mxGeometry>
        </mxCell>
        <mxCell id="S-c-iVjcR3PPTWWEFbm2-1" value="10. Chooses to Flip Card" style="html=1;verticalAlign=bottom;startArrow=oval;startFill=1;endArrow=block;startSize=8;rounded=0;" edge="1" parent="1">
          <mxGeometry width="60" relative="1" as="geometry">
            <mxPoint x="69.5" y="247" as="sourcePoint" />
            <mxPoint x="289.5" y="247" as="targetPoint" />
          </mxGeometry>
        </mxCell>
        <mxCell id="S-c-iVjcR3PPTWWEFbm2-2" value="11. Updates React Card Component" style="html=1;verticalAlign=bottom;endArrow=open;dashed=1;endSize=8;rounded=0;" edge="1" parent="1">
          <mxGeometry relative="1" as="geometry">
            <mxPoint x="289.5" y="278" as="sourcePoint" />
            <mxPoint x="69.5" y="278" as="targetPoint" />
          </mxGeometry>
        </mxCell>
        <mxCell id="S-c-iVjcR3PPTWWEFbm2-3" value="12. User Selects Card&amp;nbsp;&lt;br&gt;Difficulty" style="html=1;verticalAlign=bottom;startArrow=oval;startFill=1;endArrow=block;startSize=8;rounded=0;" edge="1" parent="1">
          <mxGeometry width="60" relative="1" as="geometry">
            <mxPoint x="69.5" y="319" as="sourcePoint" />
            <mxPoint x="290" y="319" as="targetPoint" />
          </mxGeometry>
        </mxCell>
        <mxCell id="S-c-iVjcR3PPTWWEFbm2-7" value="14. Difficulty Status Change Confirmed" style="html=1;verticalAlign=bottom;endArrow=open;dashed=1;endSize=8;rounded=0;exitX=0.5;exitY=0.813;exitDx=0;exitDy=0;exitPerimeter=0;" edge="1" parent="1">
          <mxGeometry relative="1" as="geometry">
            <mxPoint x="290" y="357.24" as="sourcePoint" />
            <mxPoint x="69.5" y="357.24" as="targetPoint" />
          </mxGeometry>
        </mxCell>
        <mxCell id="S-c-iVjcR3PPTWWEFbm2-9" value="15. Chooses Previous Card" style="html=1;verticalAlign=bottom;startArrow=oval;startFill=1;endArrow=block;startSize=8;rounded=0;" edge="1" parent="1">
          <mxGeometry width="60" relative="1" as="geometry">
            <mxPoint x="69.5" y="382" as="sourcePoint" />
            <mxPoint x="289.5" y="382" as="targetPoint" />
          </mxGeometry>
        </mxCell>
        <mxCell id="S-c-iVjcR3PPTWWEFbm2-13" value="17. Chooses Next Card" style="html=1;verticalAlign=bottom;startArrow=oval;startFill=1;endArrow=block;startSize=8;rounded=0;" edge="1" parent="1">
          <mxGeometry width="60" relative="1" as="geometry">
            <mxPoint x="69.5" y="444" as="sourcePoint" />
            <mxPoint x="290" y="444" as="targetPoint" />
          </mxGeometry>
        </mxCell>
        <mxCell id="S-c-iVjcR3PPTWWEFbm2-19" value="19. Updates React Card Component&amp;nbsp;&lt;br&gt;with next Card" style="html=1;verticalAlign=bottom;endArrow=open;dashed=1;endSize=8;rounded=0;" edge="1" parent="1">
          <mxGeometry relative="1" as="geometry">
            <mxPoint x="290" y="505" as="sourcePoint" />
            <mxPoint x="69.5" y="505" as="targetPoint" />
          </mxGeometry>
        </mxCell>
        <mxCell id="S-c-iVjcR3PPTWWEFbm2-20" value="20. Requests Save" style="html=1;verticalAlign=bottom;startArrow=oval;startFill=1;endArrow=block;startSize=8;rounded=0;" edge="1" parent="1">
          <mxGeometry width="60" relative="1" as="geometry">
            <mxPoint x="69.5" y="534" as="sourcePoint" />
            <mxPoint x="289.5" y="534" as="targetPoint" />
          </mxGeometry>
        </mxCell>
        <mxCell id="S-c-iVjcR3PPTWWEFbm2-23" value="21. Post Deck" style="html=1;verticalAlign=bottom;startArrow=oval;startFill=1;endArrow=block;startSize=8;rounded=0;" edge="1" parent="1" source="6rk3nvtCwCU-dYlgrRcQ-3" target="6rk3nvtCwCU-dYlgrRcQ-4">
          <mxGeometry width="60" relative="1" as="geometry">
            <mxPoint x="320" y="540" as="sourcePoint" />
            <mxPoint x="380" y="540" as="targetPoint" />
            <Array as="points">
              <mxPoint x="410" y="530" />
            </Array>
          </mxGeometry>
        </mxCell>
        <mxCell id="mTX0Zf34lOwFtFNKfacL-15" value="24. Posts.Deck to User Folder" style="html=1;verticalAlign=bottom;startArrow=oval;startFill=1;endArrow=block;startSize=8;rounded=0;" parent="1" edge="1">
          <mxGeometry width="60" relative="1" as="geometry">
            <mxPoint x="425" y="590" as="sourcePoint" />
            <mxPoint x="700" y="590" as="targetPoint" />
          </mxGeometry>
        </mxCell>
      </root>
    </mxGraphModel>
  </diagram>
</mxfile>
